<svg width="500" height="500" viewBox="0 0 500 500" fill="none" xmlns="http://www.w3.org/2000/svg">
<path d="M416.667 145.833V416.667C416.667 427.717 412.277 438.315 404.463 446.129C396.649 453.943 386.051 458.333 375 458.333H125C113.949 458.333 103.351 453.943 95.5372 446.129C87.7232 438.315 83.3333 427.717 83.3333 416.667V83.3333C83.3333 72.2826 87.7232 61.6839 95.5372 53.8699C103.351 46.0559 113.949 41.6667 125 41.6667H312.5L416.667 145.833Z" fill="url(#paint0_linear_11_195)"/>
<path d="M333.333 145.833H416.667L312.5 41.6667V125C312.5 130.525 314.695 135.824 318.602 139.731C322.509 143.638 327.808 145.833 333.333 145.833Z" fill="#E3DFFE"/>
<path d="M343.75 229.167H156.25C150.497 229.167 145.833 233.83 145.833 239.583V260.417C145.833 266.17 150.497 270.833 156.25 270.833H343.75C349.503 270.833 354.167 266.17 354.167 260.417V239.583C354.167 233.83 349.503 229.167 343.75 229.167Z" fill="url(#paint1_linear_11_195)"/>
<path d="M343.75 312.5H156.25C150.497 312.5 145.833 317.164 145.833 322.917V343.75C145.833 349.503 150.497 354.167 156.25 354.167H343.75C349.503 354.167 354.167 349.503 354.167 343.75V322.917C354.167 317.164 349.503 312.5 343.75 312.5Z" fill="url(#paint2_linear_11_195)"/>
<defs>
<linearGradient id="paint0_linear_11_195" x1="83.3333" y1="74.5614" x2="413.456" y2="419.54" gradientUnits="userSpaceOnUse">
<stop stop-color="#FF9C95"/>
<stop offset="1" stop-color="#D01306"/>
</linearGradient>
<linearGradient id="paint1_linear_11_195" x1="250" y1="229.167" x2="250" y2="270.833" gradientUnits="userSpaceOnUse">
<stop stop-color="white"/>
<stop offset="1" stop-color="white" stop-opacity="0.5"/>
</linearGradient>
<linearGradient id="paint2_linear_11_195" x1="250" y1="312.5" x2="250" y2="354.167" gradientUnits="userSpaceOnUse">
<stop stop-color="white"/>
<stop offset="1" stop-color="white" stop-opacity="0.5"/>
</linearGradient>
</defs>
</svg>
